{"title":"Los.Ojos.De.Julia.2010.DVDrip.XViD-LuCiFeR","uid":6250390,"size":715010211,"categoryP":"video","categoryS":"movies","magnet":"?xt=urn:btih:7a205a9caf2586b120308bec38463072bde10e56&amp;dn=Los.Ojos.De.Julia.2010.DVDrip.XViD-LuCiFeR&amp;tr=udp%3A%2F%2Ftracker.openbittorrent.com%3A80&amp;tr=udp%3A%2F%2Fopen.demonii.com%3A1337&amp;tr=udp%3A%2F%2Ftracker.coppersurfer.tk%3A6969&amp;tr=udp%3A%2F%2Fexodus.desync.com%3A6969","seeders":1,"leechers":0,"uploader":"HORRORTEAM-BG","files":-1,"time":1300389115,"description":"Los.Ojos.De.Julia.2010.DVDrip.XViD-LuCiFeR.avi\nFormat                           : AVI\nFormat/Info                      : Audio Video Interleave\nFile size                        : 681 MiB\nDuration                         : 1h 52mn\nOverall bit rate                 : 847 Kbps\nWriting library                  : VirtualDub build 0/release\n\nVideo\nID                               : 0\nFormat                           : MPEG-4 Visual\nFormat profile                   : Advanced Simple@L5\nFormat settings, BVOP            : 2\nFormat settings, QPel            : Yes\nFormat settings, GMC             : 3 warppoints\nFormat settings, Matrix          : Default (MPEG)\nCodec ID                         : XVID\nCodec ID/Hint                    : XviD\nDuration                         : 1h 52mn\nBit rate                         : 707 Kbps\nWidth                            : 704 pixels\nHeight                           : 288 pixels\nDisplay aspect ratio             : 2.40:1\nFrame rate                       : 25.000 fps\nColor space                      : YUV\nChroma subsampling               : 4:2:0\nBit depth                        : 8 bits\nScan type                        : Progressive\nCompression mode                 : Lossy\nBits/(Pixel*Frame)               : 0.139\nStream size                      : 569 MiB (83%)\nWriting library                  : XviD 1.2.1 (UTC 2008-12-04)\n\nAudio\nID                               : 1\nFormat                           : MPEG Audio\nFormat version                   : Version 1\nFormat profile                   : Layer 3\nMode                             : Joint stereo\nCodec ID                         : 55\nCodec ID/Hint                    : MP3\nDuration                         : 1h 52mn\nBit rate mode                    : Constant\nBit rate                         : 128 Kbps\nChannel(s)                       : 2 channels\nSampling rate                    : 44.1 KHz\nCompression mode                 : Lossy\nDelay relative to video          : 1ms\nStream size                      : 103 MiB (15%)\nAlignment                        : Aligned on interleaves\nInterleave, duration             : 26 ms (0.65 video frame)\nInterleave, preload duration     : 498 ms\nWriting library                  : LAME3.98.2\n\nIt's the story of a woman who is slowly going blind whilst at the same time trying to uncover the mysterious death of her twin sister.\n\n","torrent":{"xt":"urn:btih:7a205a9caf2586b120308bec38463072bde10e56","amp;dn":"Los.Ojos.De.Julia.2010.DVDrip.XViD-LuCiFeR","amp;tr":["udp%3A%2F%2Ftracker.openbittorrent.com%3A80","udp%3A%2F%2Fopen.demonii.com%3A1337","udp%3A%2F%2Ftracker.coppersurfer.tk%3A6969","udp%3A%2F%2Fexodus.desync.com%3A6969"],"infoHash":"7a205a9caf2586b120308bec38463072bde10e56","infoHashBuffer":{"type":"Buffer","data":[122,32,90,156,175,37,134,177,32,48,139,236,56,70,48,114,189,225,14,86]},"announce":[],"urlList":[]}}